<svg width="20" height="20" viewBox="0 0 20 20" fill="none" xmlns="http://www.w3.org/2000/svg">
<g clip-path="url(#clip0_122_1308)">
<path d="M19.6878 8.74842C19.5268 8.64737 18.2654 7.89174 17.7641 7.66241L17.1429 6.16272C17.3275 5.66682 17.6801 4.2757 17.7352 4.03452C17.7604 3.92453 17.7572 3.80996 17.7259 3.70154C17.6947 3.59311 17.6365 3.49439 17.5567 3.4146L16.5853 2.44324C16.5055 2.36345 16.4068 2.30522 16.2984 2.274C16.19 2.24278 16.0754 2.23959 15.9654 2.26472C15.7825 2.30656 14.355 2.66433 13.8372 2.85706L12.3375 2.23586C12.118 1.75617 11.3849 0.524647 11.2515 0.312187C11.1915 0.216619 11.1082 0.137844 11.0095 0.0832415C10.9107 0.0286393 10.7997 -2.35539e-06 10.6869 1.45281e-10H9.31307C9.20023 2.0009e-06 9.08923 0.0286452 8.99048 0.0832466C8.89173 0.137848 8.80846 0.216621 8.74846 0.312187C8.6474 0.473163 7.89178 1.73453 7.66245 2.23586L6.16276 2.85706C5.66686 2.67249 4.27573 2.31988 4.03456 2.26472C3.92457 2.2396 3.81 2.24281 3.70158 2.27403C3.59316 2.30525 3.49443 2.36347 3.41464 2.44324L2.44324 3.41464C2.36345 3.49442 2.30522 3.59315 2.274 3.70157C2.24278 3.80999 2.23958 3.92457 2.26472 4.03456C2.30656 4.21745 2.66433 5.64495 2.85706 6.16276L2.23585 7.66245C1.75617 7.8819 0.524647 8.61502 0.312187 8.74846C0.216619 8.80845 0.137844 8.89172 0.0832414 8.99046C0.0286393 9.0892 -2.35539e-06 9.20019 1.45281e-10 9.31303L1.45281e-10 10.6869C2.0009e-06 10.7997 0.0286452 10.9107 0.0832466 11.0094C0.137848 11.1082 0.216621 11.1915 0.312187 11.2515C0.473163 11.3525 1.73453 12.1081 2.23585 12.3375L2.85706 13.8372C2.67249 14.3331 2.31988 15.7242 2.26472 15.9654C2.2396 16.0754 2.24279 16.1899 2.27402 16.2983C2.30524 16.4068 2.36346 16.5055 2.44324 16.5853L3.41464 17.5567C3.49442 17.6365 3.59314 17.6947 3.70157 17.7259C3.80999 17.7572 3.92457 17.7603 4.03456 17.7352C4.21745 17.6934 5.64495 17.3356 6.16276 17.1429L7.66245 17.7641C7.8819 18.2438 8.61502 19.4753 8.74846 19.6877C8.80846 19.7833 8.89173 19.8621 8.99048 19.9167C9.08923 19.9713 9.20023 19.9999 9.31307 19.9999H10.6869C10.7997 19.9999 10.9107 19.9713 11.0095 19.9167C11.1082 19.8621 11.1915 19.7833 11.2515 19.6877C11.3526 19.5268 12.1082 18.2654 12.3375 17.7641L13.8372 17.1429C14.3331 17.3274 15.7242 17.68 15.9654 17.7352C16.0754 17.7604 16.19 17.7572 16.2984 17.726C16.4068 17.6947 16.5056 17.6365 16.5853 17.5567L17.5567 16.5853C17.6365 16.5055 17.6947 16.4068 17.726 16.2984C17.7572 16.1899 17.7604 16.0754 17.7352 15.9654C17.6934 15.7825 17.3356 14.355 17.1429 13.8372L17.7641 12.3375C18.2438 12.118 19.4753 11.3849 19.6878 11.2515C19.7833 11.1915 19.8621 11.1082 19.9167 11.0094C19.9713 10.9107 20 10.7997 20 10.6869V9.31303C20 9.20019 19.9713 9.0892 19.9167 8.99045C19.8621 8.8917 19.7833 8.80842 19.6878 8.74842ZM9.99998 14.3595C7.59612 14.3595 5.64042 12.4038 5.64042 9.99994C5.64042 7.59608 7.59612 5.64042 9.99998 5.64042C12.4038 5.64042 14.3595 7.59612 14.3595 9.99998C14.3595 12.4038 12.4038 14.3595 9.99998 14.3595Z" fill="#B29470"/>
</g>
<defs>
<clipPath id="clip0_122_1308">
<rect width="20" height="20" fill="white"/>
</clipPath>
</defs>
</svg>
