<svg width="35" height="36" viewBox="0 0 35 36" fill="none" xmlns="http://www.w3.org/2000/svg">
<g clip-path="url(#clip0_250_1937)">
<path d="M21.9232 18.2513C24.3661 15.8084 24.3661 11.8476 21.9231 9.40478C19.4802 6.96193 15.5194 6.96202 13.0765 9.40499C10.6337 11.848 10.6337 15.8087 13.0767 18.2515C15.5196 20.6944 19.4803 20.6943 21.9232 18.2513Z" stroke="#B29470" stroke-width="1.6" stroke-miterlimit="10" stroke-linecap="round" stroke-linejoin="round"/>
<path d="M17.9343 24.7304L22.0956 34.748L25.081 31.1561L29.7319 31.4867L26.0385 22.5007M8.96236 22.5007L5.26904 31.4867L9.91987 31.1561L13.0443 34.748L17.0666 24.7304M9.94339 31.1833L12.7577 24.547M25.0575 31.1833L22.2432 24.547" stroke="#B29470" stroke-width="1.6" stroke-miterlimit="10" stroke-linecap="round" stroke-linejoin="round"/>
<path d="M15.8937 2.00794C16.0893 1.77145 16.3348 1.58107 16.6125 1.45039C16.8902 1.31971 17.1933 1.25195 17.5002 1.25195C17.8071 1.25195 18.1103 1.31971 18.388 1.45039C18.6657 1.58107 18.9111 1.77145 19.1067 2.00794L19.5398 2.53137C19.8049 2.85182 20.1598 3.08566 20.5589 3.20283C20.9579 3.32 21.3829 3.31516 21.7792 3.18892L22.4265 2.98274C23.0185 2.79414 23.6639 2.87945 24.1867 3.21537C24.7094 3.55129 25.0551 4.1724 25.1295 4.78934L25.2108 5.46378C25.3127 6.3085 25.9176 7.14562 26.7392 7.3667L27.3952 7.5432C27.6915 7.62297 27.9666 7.76717 28.2008 7.9655C28.435 8.16384 28.6226 8.41142 28.75 8.69059C28.8775 8.96975 28.9418 9.27361 28.9384 9.58049C28.9349 9.88737 28.8637 10.1897 28.73 10.4659L28.4338 11.0772C28.2524 11.4515 28.1871 11.8715 28.2463 12.2832C28.3055 12.6948 28.4865 13.0794 28.7659 13.3875L29.2224 13.8906C29.4286 14.1179 29.5821 14.3879 29.6719 14.6814C29.7617 14.9749 29.7856 15.2846 29.742 15.5884C29.6983 15.8922 29.5881 16.1826 29.4192 16.4388C29.2504 16.6951 29.027 16.911 28.7651 17.071L28.1854 17.4252C27.8305 17.642 27.5485 17.96 27.3758 18.3383C27.203 18.7166 27.1473 19.138 27.2159 19.5482L27.3278 20.2183C27.3784 20.521 27.3615 20.8311 27.2784 21.1266C27.1953 21.422 27.048 21.6955 26.847 21.9274C26.6461 22.1594 26.3964 22.3441 26.1158 22.4684C25.8352 22.5927 25.5306 22.6536 25.2237 22.6466L24.5446 22.6311C24.1288 22.6217 23.7197 22.7368 23.3698 22.9616C23.0199 23.1865 22.7453 23.5108 22.5812 23.893L22.3131 24.5172C22.192 24.7992 22.0102 25.051 21.7805 25.2546C21.5509 25.4583 21.2791 25.6087 20.9846 25.6951C20.6902 25.7816 20.3802 25.802 20.0769 25.7549C19.7737 25.7077 19.4845 25.5942 19.2302 25.4224L18.6672 25.0422C18.3225 24.8094 17.9161 24.685 17.5002 24.685C17.0843 24.685 16.6779 24.8094 16.3333 25.0422L15.7703 25.4224C15.5159 25.5941 15.2268 25.7076 14.9235 25.7548C14.6202 25.8019 14.3103 25.7815 14.0158 25.695C13.7214 25.6086 13.4496 25.4582 13.2199 25.2546C12.9903 25.051 12.8084 24.7992 12.6873 24.5172L12.4193 23.893C12.2552 23.5108 11.9805 23.1865 11.6306 22.9616C11.2808 22.7368 10.8717 22.6217 10.4559 22.6311L9.77671 22.6466C9.46987 22.6536 9.16527 22.5928 8.88465 22.4685C8.60404 22.3441 8.35432 22.1594 8.15334 21.9275C7.95235 21.6955 7.80505 21.422 7.72195 21.1266C7.63885 20.8311 7.622 20.521 7.67261 20.2183L7.78458 19.5482C7.85314 19.138 7.79745 18.7166 7.62468 18.3383C7.45191 17.96 7.16995 17.642 6.81504 17.4252L6.23535 17.071C5.97345 16.911 5.75011 16.6951 5.58125 16.4388C5.4124 16.1825 5.3022 15.8921 5.25853 15.5884C5.21485 15.2846 5.23877 14.9749 5.32858 14.6814C5.4184 14.3879 5.57188 14.1179 5.77809 13.8906L6.23453 13.3875C6.51398 13.0794 6.69492 12.6948 6.75411 12.2832C6.8133 11.8715 6.74803 11.4515 6.56669 11.0772L6.27049 10.4659C6.13665 10.1897 6.06543 9.88738 6.06192 9.58048C6.05842 9.27359 6.1227 8.96971 6.2502 8.69053C6.37769 8.41135 6.56525 8.16375 6.79947 7.96543C7.0337 7.7671 7.30882 7.62293 7.6052 7.5432L8.26118 7.3667C9.08279 7.14562 9.6877 6.30856 9.78963 5.46378L9.87097 4.78934C9.94535 4.1724 10.291 3.55129 10.8138 3.21537C11.3365 2.87945 11.9819 2.79414 12.574 2.98274L13.2213 3.18892C13.6175 3.31517 14.0425 3.32002 14.4416 3.20284C14.8406 3.08567 15.1955 2.85182 15.4607 2.53137L15.8937 2.00794Z" stroke="#34322D" stroke-width="1.6" stroke-miterlimit="10" stroke-linecap="round" stroke-linejoin="round"/>
</g>
<defs>
<clipPath id="clip0_250_1937">
<rect width="35" height="35" fill="white" transform="translate(0 0.5)"/>
</clipPath>
</defs>
</svg>
