<svg width="35" height="35" viewBox="0 0 35 35" fill="none" xmlns="http://www.w3.org/2000/svg">
<g clip-path="url(#clip0_250_1911)">
<path d="M0.769043 9.125H34.248" stroke="#34322D" stroke-width="1.6" stroke-miterlimit="10" stroke-linecap="round" stroke-linejoin="round"/>
<path d="M17.8707 30.0024H0.751953V2.60156H34.248V25.383" stroke="#34322D" stroke-width="1.6" stroke-miterlimit="10" stroke-linejoin="round"/>
<path d="M29.9419 0.775146V4.49362M25.7722 0.775146V4.49362M21.6026 0.775146V4.49362M17.4328 0.775146V4.49362M13.2632 0.775146V4.49362M9.09348 0.775146V4.49362M4.92383 0.775146V4.49362" stroke="#34322D" stroke-width="1.6" stroke-miterlimit="10" stroke-linecap="round" stroke-linejoin="round"/>
<path d="M25.4065 34.2246C30.2895 34.2246 34.248 30.2661 34.248 25.383C34.248 20.5 30.2895 16.5415 25.4065 16.5415C20.5234 16.5415 16.5649 20.5 16.5649 25.383C16.5649 30.2661 20.5234 34.2246 25.4065 34.2246Z" stroke="#B29470" stroke-width="1.6" stroke-miterlimit="10" stroke-linecap="round" stroke-linejoin="round"/>
<path d="M29.3395 25.3832H25.4067V21.3447" stroke="#B29470" stroke-width="1.6" stroke-miterlimit="10" stroke-linecap="round" stroke-linejoin="round"/>
</g>
<defs>
<clipPath id="clip0_250_1911">
<rect width="35" height="35" fill="white"/>
</clipPath>
</defs>
</svg>
