<svg width="26" height="25" viewBox="0 0 26 25" fill="none" xmlns="http://www.w3.org/2000/svg">
<path fill-rule="evenodd" clip-rule="evenodd" d="M8.06194 7.03133H6.67808C6.21708 7.03135 5.7732 7.20603 5.43583 7.52021C5.09845 7.83439 4.89265 8.26472 4.85985 8.72456L3.96714 21.2246C3.94934 21.4742 3.98314 21.7249 4.06645 21.9609C4.14975 22.197 4.28078 22.4133 4.45136 22.5965C4.62194 22.7797 4.82842 22.9258 5.05793 23.0257C5.28744 23.1256 5.53506 23.1772 5.78537 23.1772H20.2145C20.4648 23.177 20.7124 23.1253 20.9418 23.0254C21.1712 22.9254 21.3776 22.7793 21.5482 22.5962C21.7187 22.413 21.8498 22.1967 21.9331 21.9608C22.0165 21.7248 22.0504 21.4742 22.0328 21.2246L21.1401 8.72456C21.1073 8.26472 20.9015 7.83439 20.5641 7.52021C20.2267 7.20603 19.7828 7.03135 19.3218 7.03133H17.9479V6.77092C17.9479 5.45865 17.4266 4.20012 16.4987 3.27221C15.5707 2.34429 14.3122 1.823 13 1.823C10.3671 1.823 7.93381 3.91987 8.05204 6.77092L8.06194 7.03133ZM17.9479 8.59383V12.5001C17.9479 12.7073 17.8656 12.906 17.7191 13.0525C17.5725 13.199 17.3738 13.2813 17.1666 13.2813C16.9594 13.2813 16.7607 13.199 16.6142 13.0525C16.4677 12.906 16.3854 12.7073 16.3854 12.5001V8.59383H9.61454V12.5001C9.61454 12.7073 9.53223 12.906 9.38572 13.0525C9.2392 13.199 9.04049 13.2813 8.83329 13.2813C8.62609 13.2813 8.42738 13.199 8.28086 13.0525C8.13435 12.906 8.05204 12.7073 8.05204 12.5001C8.05204 12.5001 8.11975 10.6746 8.09735 8.59383H6.67808C6.61232 8.59392 6.54903 8.61889 6.50092 8.66372C6.45281 8.70854 6.42344 8.76991 6.41871 8.8355L5.52548 21.3355C5.5229 21.3712 5.52771 21.407 5.5396 21.4408C5.5515 21.4746 5.57023 21.5055 5.59461 21.5317C5.619 21.5579 5.64853 21.5788 5.68135 21.5931C5.71417 21.6073 5.74958 21.6147 5.78537 21.6147H20.2145C20.2503 21.6145 20.2856 21.6071 20.3184 21.5927C20.3511 21.5784 20.3806 21.5575 20.4049 21.5314C20.4293 21.5052 20.448 21.4743 20.46 21.4406C20.4719 21.4069 20.4769 21.3712 20.4744 21.3355L19.5812 8.8355C19.5765 8.76991 19.5471 8.70854 19.499 8.66372C19.4509 8.61889 19.3876 8.59392 19.3218 8.59383H17.9479ZM16.3854 7.03133V6.77092C16.3854 5.87305 16.0287 5.01195 15.3938 4.37706C14.7589 3.74217 13.8978 3.3855 13 3.3855C12.1021 3.3855 11.241 3.74217 10.6061 4.37706C9.97122 5.01195 9.61454 5.87305 9.61454 6.77092V7.03133H16.3854Z" fill="#34322D"/>
</svg>
