<svg width="17" height="16" viewBox="0 0 17 16" fill="none" xmlns="http://www.w3.org/2000/svg">
<g clip-path="url(#clip0_1201_281)">
<path d="M8.18408 0C3.76249 0 0.184082 3.578 0.184082 8C0.184082 12.4215 3.76208 16 8.18408 16C12.6057 16 16.1841 12.422 16.1841 8C16.1841 3.57847 12.6061 0 8.18408 0ZM8.18408 14.8837C4.38839 14.8837 1.30036 11.7957 1.30036 8C1.30036 4.20428 4.38839 1.11628 8.18408 1.11628C11.9798 1.11628 15.0678 4.20428 15.0678 8C15.0678 11.7957 11.9798 14.8837 8.18408 14.8837Z" fill="#BDBDBD"/>
<path d="M8.18427 6.66875C7.71039 6.66875 7.37343 6.86887 7.37343 7.16372V11.1758C7.37343 11.4285 7.71039 11.6812 8.18427 11.6812C8.63708 11.6812 9.00561 11.4285 9.00561 11.1758V7.16365C9.00561 6.86884 8.63708 6.66875 8.18427 6.66875ZM8.18427 4.19409C7.69986 4.19409 7.3208 4.54159 7.3208 4.94175C7.3208 5.34194 7.69989 5.69997 8.18427 5.69997C8.65814 5.69997 9.03727 5.34194 9.03727 4.94175C9.03727 4.54159 8.65811 4.19409 8.18427 4.19409Z" fill="#BDBDBD"/>
</g>
<defs>
<clipPath id="clip0_1201_281">
<rect width="16" height="16" fill="white" transform="translate(0.184082)"/>
</clipPath>
</defs>
</svg>
