<svg width="35" height="36" viewBox="0 0 35 36" fill="none" xmlns="http://www.w3.org/2000/svg">
<g clip-path="url(#clip0_255_1942)">
<path d="M28.8705 14.6428H32.1972C33.3299 14.6428 34.248 15.561 34.248 16.6936V30.4536C34.248 31.5862 33.3299 32.5044 32.1972 32.5044H8.18018C7.04753 32.5044 6.12939 31.5862 6.12939 30.4536V21.3571M34.248 25.5267H6.12939M34.248 28.5223H6.12939" stroke="#34322D" stroke-width="1.6" stroke-miterlimit="10" stroke-linejoin="round"/>
<path d="M7.02393 18.3492H3.75977M13.2959 18.3492H10.0317M19.5679 18.3492H16.3037M25.8398 18.3492H22.5757M11.4467 14.229H17.1394M20.1472 14.229H25.8398M3.75977 10.6235H8.4389V14.2291H3.75977V10.6235Z" stroke="#34322D" stroke-width="1.6" stroke-miterlimit="10" stroke-linecap="round" stroke-linejoin="round"/>
<path d="M26.8198 21.3572H2.80273C1.67009 21.3572 0.751953 20.439 0.751953 19.3064V5.54639C0.751953 4.41374 1.67009 3.49561 2.80273 3.49561H26.8198C27.9524 3.49561 28.8706 4.41374 28.8706 5.54639V19.3064C28.8706 20.439 27.9524 21.3572 26.8198 21.3572Z" stroke="#B29470" stroke-width="1.6" stroke-miterlimit="10" stroke-linecap="round" stroke-linejoin="round"/>
</g>
<defs>
<clipPath id="clip0_255_1942">
<rect width="35" height="35" fill="white" transform="translate(0 0.5)"/>
</clipPath>
</defs>
</svg>
