<svg width="30" height="30" viewBox="0 0 30 30" fill="none" xmlns="http://www.w3.org/2000/svg"><g clip-path="url(#clip0_227_779)"><path d="M23.2865 6.71359C23.5502 6.97732 23.6983 7.335 23.6983 7.70796C23.6983 8.08092 23.5502 8.43861 23.2865 8.70233L16.9888 15L23.2865 21.2977C23.5502 21.5614 23.6983 21.9191 23.6983 22.292C23.6983 22.665 23.5502 23.0227 23.2865 23.2864C23.0227 23.5501 22.6651 23.6983 22.2921 23.6983C21.9191 23.6983 21.5615 23.5501 21.2977 23.2864L15.0001 16.9887L8.70239 23.2864C8.43867 23.5501 8.08098 23.6983 7.70802 23.6983C7.33506 23.6983 6.97738 23.5501 6.71365 23.2864C6.44993 23.0227 6.30177 22.665 6.30177 22.292C6.30177 21.9191 6.44993 21.5614 6.71365 21.2977L13.0113 15L6.71365 8.70233C6.44993 8.43861 6.30177 8.08092 6.30177 7.70796C6.30177 7.335 6.44993 6.97732 6.71365 6.71359C6.97738 6.44987 7.33506 6.30171 7.70802 6.30171C8.08098 6.30171 8.43867 6.44987 8.70239 6.71359L15.0001 13.0113L21.2977 6.71359C21.5615 6.44987 21.9191 6.30171 22.2921 6.30171C22.6651 6.30171 23.0227 6.44987 23.2865 6.71359Z" fill="white"></path></g><defs><clipPath id="clip0_227_779"><rect width="30" height="30" fill="white"></rect></clipPath></defs></svg>