<svg width="30" height="30" viewBox="0 0 30 30" fill="none" xmlns="http://www.w3.org/2000/svg">
<g clip-path="url(#clip0_316_4624)">
<path d="M23.286 6.71359C23.5497 6.97732 23.6979 7.335 23.6979 7.70796C23.6979 8.08092 23.5497 8.43861 23.286 8.70233L16.9883 15L23.286 21.2977C23.5497 21.5614 23.6979 21.9191 23.6979 22.292C23.6979 22.665 23.5497 23.0227 23.286 23.2864C23.0223 23.5501 22.6646 23.6983 22.2916 23.6983C21.9186 23.6983 21.561 23.5501 21.2972 23.2864L14.9996 16.9887L8.7019 23.2864C8.43818 23.5501 8.08049 23.6983 7.70753 23.6983C7.33457 23.6983 6.97689 23.5501 6.71317 23.2864C6.44944 23.0227 6.30128 22.665 6.30128 22.292C6.30128 21.9191 6.44944 21.5614 6.71317 21.2977L13.0108 15L6.71317 8.70233C6.44944 8.43861 6.30128 8.08092 6.30128 7.70796C6.30128 7.335 6.44944 6.97732 6.71317 6.71359C6.97689 6.44987 7.33457 6.30171 7.70753 6.30171C8.08049 6.30171 8.43818 6.44987 8.7019 6.71359L14.9996 13.0113L21.2972 6.71359C21.561 6.44987 21.9186 6.30171 22.2916 6.30171C22.6646 6.30171 23.0223 6.44987 23.286 6.71359Z" fill="#34322D"/>
</g>
<defs>
<clipPath id="clip0_316_4624">
<rect width="30" height="30" fill="white"/>
</clipPath>
</defs>
</svg>
