<svg width="54" height="58" viewBox="0 0 54 58" fill="none" xmlns="http://www.w3.org/2000/svg">
<circle cx="24.5" cy="24.5" r="24.5" fill="#E7DFD3"/>
<g clip-path="url(#clip0_202_3670)">
<mask id="mask0_202_3670" style="mask-type:luminance" maskUnits="userSpaceOnUse" x="9" y="13" width="45" height="45">
<path d="M52.9999 57V14.0001H10V57H52.9999Z" fill="white" stroke="white" stroke-width="2"/>
</mask>
<g mask="url(#mask0_202_3670)">
<path d="M31.4999 56.2422C29.8723 56.2428 28.3017 55.6425 27.0894 54.5564C25.7361 53.344 23.9827 52.6739 22.1657 52.6746C21.9554 52.6746 21.7425 52.6838 21.533 52.7018C21.3401 52.7183 21.1467 52.7265 20.9531 52.7266C17.27 52.7266 14.2734 49.7301 14.2734 46.0469C14.2735 45.8533 14.2817 45.6599 14.2982 45.467C14.472 43.4472 13.7959 41.4219 12.4435 39.9106C11.3575 38.6983 10.7572 37.1277 10.7578 35.5001C10.7572 33.8724 11.3575 32.3018 12.4435 31.0895C13.7959 29.5782 14.472 27.5529 14.2982 25.533C14.2817 25.3402 14.2735 25.1467 14.2734 24.9532C14.2734 21.27 17.27 18.2735 20.9531 18.2735C21.1461 18.2735 21.3413 18.2819 21.5331 18.2983C21.7432 18.3164 21.954 18.3254 22.1649 18.3255C23.9822 18.3263 25.7358 17.6562 27.0894 16.4437C28.3017 15.3576 29.8723 14.7573 31.4999 14.7579C33.1276 14.7573 34.6982 15.3576 35.9105 16.4437C37.2638 17.6561 39.0171 18.3263 40.8342 18.3255C41.0445 18.3255 41.2574 18.3163 41.4669 18.2983C41.6586 18.2819 41.8538 18.2735 42.0468 18.2735C45.7299 18.2735 48.7265 21.27 48.7265 24.9532C48.7264 25.1468 48.7182 25.3403 48.7017 25.5331C48.5279 27.5529 49.204 29.5782 50.5563 31.0895C51.6424 32.3018 52.2427 33.8724 52.2421 35.5001C52.2427 37.1277 51.6424 38.6983 50.5563 39.9106C49.204 41.4219 48.5279 43.4472 48.7017 45.4671C48.7181 45.6588 48.7265 45.8539 48.7265 46.0469C48.7265 49.7301 45.7299 52.7266 42.0468 52.7266C41.8538 52.7266 41.6586 52.7182 41.4668 52.7018C41.2567 52.6837 41.0459 52.6747 40.835 52.6746C39.0177 52.6738 37.2641 53.3439 35.9105 54.5564C34.6982 55.6425 33.1276 56.2428 31.4999 56.2422Z" stroke="#B29470" stroke-width="2" stroke-miterlimit="10"/>
<path d="M26.2266 35.5L29.7422 39.0156L36.7734 31.9844" stroke="#B29470" stroke-width="2" stroke-miterlimit="10"/>
<path d="M31.5 47.8047C24.7159 47.8047 19.1953 42.284 19.1953 35.5C19.1953 28.716 24.7159 23.1954 31.5 23.1954C38.284 23.1954 43.8046 28.716 43.8046 35.5C43.8046 42.284 38.284 47.8047 31.5 47.8047Z" stroke="#B29470" stroke-width="2" stroke-miterlimit="10"/>
</g>
</g>
<defs>
<clipPath id="clip0_202_3670">
<rect width="45" height="45" fill="white" transform="translate(9 13)"/>
</clipPath>
</defs>
</svg>
