<svg width="16" height="17" viewBox="0 0 16 17" fill="none" xmlns="http://www.w3.org/2000/svg">
<g clip-path="url(#clip0_497_2100)">
<path d="M3.55409 0.5C2.6111 0.5 1.70673 0.874602 1.03993 1.5414C0.373137 2.20819 -0.00146484 3.11256 -0.00146484 4.05556V12.9444C-0.00146484 13.8874 0.373137 14.7918 1.03993 15.4586C1.70673 16.1254 2.6111 16.5 3.55409 16.5H12.443C13.386 16.5 14.2903 16.1254 14.9571 15.4586C15.6239 14.7918 15.9985 13.8874 15.9985 12.9444V4.05556C15.9985 3.11256 15.6239 2.20819 14.9571 1.5414C14.2903 0.874602 13.386 0.5 12.443 0.5H3.55409ZM11.5541 3.16667C12.0256 3.16643 12.4779 3.35351 12.8114 3.68674C13.145 4.01997 13.3325 4.47206 13.3328 4.94356C13.333 5.41505 13.1459 5.86733 12.8127 6.20089C12.4795 6.53446 12.0274 6.72199 11.5559 6.72222C11.3224 6.72234 11.0912 6.67647 10.8755 6.58724C10.6597 6.498 10.4637 6.36715 10.2985 6.20215C9.96496 5.86892 9.77744 5.41683 9.7772 4.94533C9.77697 4.47384 9.96404 4.02156 10.2973 3.68799C10.6305 3.35443 11.0826 3.1669 11.5541 3.16667ZM4.88742 7.61111C5.40476 7.61289 6.19054 8.41822 6.94254 9.80667C7.2412 10.356 7.50876 10.9613 7.74876 11.5569C7.89276 11.9124 8.00387 12.1844 8.05365 12.3338C8.29631 13.06 9.2812 13.1631 9.6652 12.5009C9.70342 12.4351 9.77276 12.3089 9.88742 12.14C10.0794 11.8556 10.2981 11.5676 10.5274 11.3062C11.0972 10.652 11.6483 10.2787 11.9985 10.2787C12.3541 10.2876 12.9008 10.66 13.4705 11.3062C13.7016 11.5684 13.915 11.8556 14.1105 12.14C14.171 12.2289 14.1799 12.2707 14.2208 12.3338V12.9453C14.2208 13.4168 14.0335 13.869 13.7001 14.2024C13.3667 14.5358 12.9145 14.7231 12.443 14.7231H3.55409C3.08259 14.7231 2.63041 14.5358 2.29701 14.2024C1.96361 13.869 1.77631 13.4168 1.77631 12.9453V12.1951C1.83231 12.0369 1.90698 11.8484 2.02609 11.5569C2.26876 10.9613 2.53276 10.3569 2.83231 9.80578C3.59054 8.41556 4.37098 7.61022 4.88742 7.612V7.61111Z" fill="#828282"/>
</g>
<defs>
<clipPath id="clip0_497_2100">
<rect width="16" height="16" fill="white" transform="translate(0 0.5)"/>
</clipPath>
</defs>
</svg>
