<svg width="157" height="169" viewBox="0 0 157 169" fill="none" xmlns="http://www.w3.org/2000/svg">
<mask id="mask0_13_818" style="mask-type:alpha" maskUnits="userSpaceOnUse" x="0" y="0" width="157" height="169">
<rect width="156.754" height="169" fill="#D9D9D9"/>
</mask>
<g mask="url(#mask0_13_818)">
<path fill-rule="evenodd" clip-rule="evenodd" d="M560.192 0H4.89855V162.213L4.89856 81.1066V8.24928e-05H282.545H560.192V0ZM109.411 36.3183C105.364 24.4249 94.8373 15.3309 82.9762 13.4813C80.57 13.1057 77.9954 12.8418 77.255 12.8943C63.8896 13.8454 52.5488 22.1014 47.5754 34.501L45.6201 39.3755L45.4323 93.3904L45.2452 147.405H52.6484H60.0517L60.2401 95.0731C60.4266 43.0754 60.4374 42.7214 61.8778 39.712C65.2587 32.6466 71.9955 28.5254 79.2157 29.1049C86.3793 29.6797 92.0245 33.8037 94.4227 40.2148C95.7204 43.6832 95.7648 45.5046 95.7648 95.6035V147.405H103.525H111.285L111.097 94.0635C110.91 40.9256 110.903 40.7048 109.411 36.3183ZM22.3987 147.405H29.8026V96.5875V45.7697H22.3987H14.9948V96.5875V147.405H22.3987ZM133.794 147.405H141.534V96.5875V45.7697H134.243C130.232 45.7697 126.749 45.9717 126.503 46.2187C126.256 46.465 126.054 69.3331 126.054 97.0365V147.405H133.794ZM186.375 83.4624C189.467 90.198 196.088 94.048 203.432 93.3816C212.814 92.5309 218.899 85.7233 218.918 76.0585C218.931 68.8101 215.17 62.7113 209.124 60.1771C206.372 59.0234 200.998 58.5274 198.073 59.1567C193.219 60.202 188.793 63.7478 186.219 68.6546C184.457 72.0153 184.535 79.4542 186.375 83.4624ZM81.5311 55.9845C84.0922 60.3783 84.1588 59.7807 81.8831 52.8391C80.9119 49.8769 79.8875 47.2007 79.6068 46.8931C79.3268 46.5849 78.1946 48.7051 77.0908 51.6047C73.9529 59.848 73.9064 60.5534 76.7805 56.321L79.4425 52.4016L81.5311 55.9845ZM391.574 63.2645C393.595 64.2943 394.328 64.4115 394.736 63.7693C395.707 62.2394 395.306 61.2951 393.231 60.2222C389.277 58.1774 382.666 58.4385 379.775 60.7539C377.641 62.4629 376.441 64.9903 376.441 67.7715C376.441 71.6303 379.065 74.534 385.041 77.2889C390.528 79.8183 392.819 82.0207 392.819 84.7675C392.819 87.2162 391.59 88.7724 388.699 89.9806C386.144 91.0481 382.072 90.2666 379.076 88.1336C377.75 87.1893 377.135 87.0755 376.546 87.6645C375.407 88.8033 375.62 89.7201 377.303 90.9316C381.403 93.8838 389 94.297 392.476 91.7582C395.157 89.8008 396.802 86.0578 396.258 83.1575C395.579 79.5383 393.762 77.7432 388.039 75.0388C381.675 72.0308 379.806 70.3918 379.806 67.82C379.806 65.0287 380.818 63.5183 383.258 62.6675C386.357 61.5872 388.601 61.7481 391.574 63.2645ZM245.226 92.8856C253.834 92.8856 256.622 92.0193 258.633 88.7192C260.975 84.8786 259.819 77.7641 256.571 76.0255C255.403 75.4016 255.426 75.238 256.995 72.926C260.041 68.4372 258.71 62.3902 254.204 60.2518C252.018 59.2146 239.169 58.7448 238.246 59.6689C238.005 59.9092 237.81 67.4814 237.811 76.496L237.814 92.8856H245.226ZM290.118 62.4501C297.741 62.267 298.034 62.2058 298.242 60.7458C298.456 59.2375 298.418 59.2314 289.099 59.2314C283.952 59.2314 279.539 59.4333 279.292 59.6804C279.045 59.9267 278.843 67.4989 278.843 76.5074V92.8856H288.94C298.587 92.8856 299.036 92.8257 299.036 91.5394C299.036 90.2646 298.587 90.1932 290.597 90.1932H282.158L282.352 83.9672L282.545 77.7412L288.771 77.5474C294.444 77.3717 294.997 77.2364 294.997 76.0329C294.997 74.8133 294.508 74.7123 288.603 74.7123H282.209V68.6761V62.6392L290.118 62.4501ZM328.315 90.1932H320.575V74.7123V59.2314H318.892H317.209V76.0585V92.8856H326.632C335.607 92.8856 336.056 92.8216 336.056 91.5394C336.056 90.2713 335.607 90.1932 328.315 90.1932ZM355.238 92.8856H356.921V76.0585V59.2314H355.238H353.556V76.0585V92.8856H355.238ZM421.254 73.904L418.508 73.7027L418.317 66.4671C418.147 60.0196 417.994 59.2314 416.915 59.2314C416.249 59.2314 415.502 59.4333 415.255 59.6804C415.008 59.9267 414.806 67.4989 414.806 76.5074V92.8856H416.468H418.129L418.319 84.9769L418.508 77.0681L421.213 76.8689L423.919 76.6697L428.839 84.7776C433.327 92.1735 433.932 92.8856 435.73 92.8856H437.701L434.238 87.3602C432.333 84.3206 429.884 80.3878 428.796 78.6196L426.818 75.4049L431.582 67.7742C434.201 63.5768 436.345 59.9382 436.345 59.6871C436.345 59.4367 435.63 59.2314 434.757 59.2314C433.461 59.2314 432.327 60.5984 428.584 66.6683L423.999 74.1052L421.254 73.904ZM492.884 78.2608C492.884 77.9653 493.566 77.4249 494.398 77.0594C495.231 76.6939 496.614 75.032 497.469 73.3662C500.122 68.2043 498.521 62.9657 493.509 60.4107C491.757 59.5168 489.54 59.2334 484.302 59.2328L477.403 59.2314V76.0585V92.8856H479.086H480.769V85.8182V78.7508L484.975 78.7535L489.182 78.7562L492.884 85.8182C496.258 92.2542 496.756 92.8802 498.496 92.8829L500.407 92.8856L496.645 85.8418C494.577 81.9675 492.884 78.5563 492.884 78.2608ZM531.335 90.3487C527.423 90.3487 524.808 89.1903 522.897 86.6124C521.607 84.8718 521.473 83.659 521.281 71.9729L521.072 59.2314H519.43H517.788L517.792 70.8421C517.794 77.2276 518.109 83.5795 518.491 84.956C519.974 90.2983 524.454 93.5587 530.309 93.5587C537.124 93.5587 541.801 90.482 543.325 84.995C543.713 83.597 544.032 77.2276 544.034 70.8421L544.038 59.2314H542.408H540.778L540.557 71.8834C540.37 82.5914 540.154 84.814 539.149 86.3459C537.313 89.1439 534.962 90.3487 531.335 90.3487ZM188.616 78.8854C187.233 72.4326 190.617 65.4648 196.391 62.8802C200.777 60.9168 207.796 62.1331 211.446 65.4897C215.428 69.1493 216.759 77.0863 214.3 82.5006C211.808 87.9875 204.95 91.5165 199.269 90.235C193.504 88.9353 189.962 85.1613 188.616 78.8854ZM241.151 74.1772V68.3874V62.5968H246.823C252.15 62.5968 252.58 62.7052 253.89 64.3704C255.636 66.5889 255.684 70.0331 253.999 72.1136C252.862 73.5183 252.041 73.7303 246.931 73.9403L241.151 74.1772ZM480.769 76.2012V69.399V62.5968H486.373C491.526 62.5968 492.107 62.7362 493.608 64.3341C496.002 66.8817 495.894 71.3348 493.378 73.8515C491.713 75.5167 490.949 75.7388 486.142 75.9569L480.769 76.2012ZM241.151 83.9114C241.151 80.4557 241.353 77.4269 241.6 77.1805C242.486 76.2941 251.297 76.7228 253.28 77.7479C257.249 79.8008 257.931 84.9593 254.664 88.2258C252.796 90.0943 252.407 90.1932 246.924 90.1932H241.151V83.9114ZM197.214 113.391C199.414 108.656 200.093 108.813 200.093 114.059C200.093 117.907 200.78 121.155 201.594 121.155C202.01 121.155 202.091 118.852 201.812 114.929C201.266 107.263 200.852 105.001 199.995 105.001C199.63 105.001 198.179 107.498 196.77 110.549L194.208 116.097L191.672 110.549C188.026 102.573 187.643 102.819 186.947 113.583C186.616 118.704 186.685 121.155 187.16 121.155C187.55 121.155 188.055 118.835 188.296 115.939C188.535 113.07 188.816 110.268 188.921 109.713C189.026 109.157 190.097 110.747 191.3 113.246C192.504 115.746 193.867 117.79 194.33 117.79C194.792 117.79 196.09 115.81 197.214 113.391ZM455.528 92.8856C456.949 92.8856 457.211 92.5713 457.211 90.8663C457.211 89.1614 456.949 88.8471 455.528 88.8471C454.107 88.8471 453.845 89.1614 453.845 90.8663C453.845 92.5713 454.107 92.8856 455.528 92.8856ZM212.04 106.481C213.983 106.368 215.574 105.99 215.574 105.639C215.574 105.288 213.605 105.001 211.199 105.001H206.824V113.078V121.155H211.535C217.19 121.155 217.869 119.961 212.377 119.674L208.506 119.472L208.3 116.612L208.092 113.751H211.16C215.033 113.751 215.201 112.553 211.367 112.275C208.513 112.069 208.506 112.062 208.506 109.376V106.684L212.04 106.481ZM246.391 120.989C249.653 121.302 250.011 121.18 252.187 119.004C256.306 114.885 255.89 108.861 251.301 106.149C250.231 105.518 248.086 105.001 246.533 105.001C244.218 105.001 243.295 105.414 241.42 107.29C239.418 109.292 239.132 110.005 239.132 113C239.132 117.876 241.536 120.522 246.391 120.989ZM227.551 115.459C227.368 115.643 226.125 113.364 224.787 110.397C223.45 107.429 222.066 105.001 221.71 105.001C220.872 105.001 220.456 107.302 219.912 114.929C219.635 118.829 219.714 121.155 220.126 121.155C220.912 121.155 221.614 117.31 221.624 112.95C221.628 111.213 221.875 109.641 222.173 109.458C222.471 109.273 223.564 111.073 224.602 113.456C225.64 115.84 226.883 117.79 227.363 117.79C227.843 117.79 229.226 115.746 230.437 113.246L232.639 108.703L233.229 114.741C233.553 118.061 233.954 120.913 234.119 121.078C235.035 121.994 235.185 119.759 234.664 112.945C234.247 107.48 233.839 105.338 233.215 105.338C232.737 105.338 231.342 107.54 230.115 110.232C228.888 112.925 227.734 115.276 227.551 115.459ZM264.034 114.545C267.926 114.269 269.42 112.91 269.42 109.647C269.42 107.775 269.023 106.818 267.924 106.049C267.03 105.422 265.002 105.001 262.876 105.001H259.324V113.078C259.324 117.702 259.596 121.155 259.96 121.155C260.31 121.155 260.689 119.717 260.801 117.958L261.007 114.761L264.034 114.545ZM300.187 118.424C301.152 120.882 302.401 122.089 302.401 120.562C302.401 120.065 298.9 110.116 297.34 106.179C296.336 103.645 295.072 105.3 292.397 112.648C289.334 121.06 289.257 121.386 290.408 121.002C290.845 120.856 291.552 119.695 291.979 118.422C292.7 116.27 292.978 116.092 295.934 115.9C299.088 115.695 299.123 115.716 300.187 118.424ZM275.142 118.126L274.949 111.564C274.67 102.058 273.459 103.334 273.459 113.134C273.459 119.273 273.662 121.2 274.287 120.991C274.742 120.839 277.165 117.897 279.672 114.453L284.228 108.191V114.729C284.228 119.66 284.435 121.198 285.07 120.987C286.233 120.599 286.277 105.338 285.115 105.338C284.677 105.338 282.254 108.215 279.731 111.732L275.142 118.126ZM312.329 106.477L315.19 106.27V113.713C315.19 118.226 315.455 121.155 315.863 121.155C316.274 121.155 316.536 118.014 316.536 113.078V105.001H312.23H307.924L307.687 110.666C307.492 115.317 307.168 116.713 305.876 118.46C304.238 120.675 304.23 121.445 305.853 120.821C307.682 120.12 308.668 117.438 309.067 112.081L309.469 106.684L312.329 106.477ZM326.797 111.762L323.604 111.395L323.398 108.198C323.286 106.439 322.907 105.001 322.557 105.001C322.193 105.001 321.921 108.454 321.921 113.078V121.155H325.317C328.065 121.155 329.042 120.826 330.44 119.428C331.835 118.033 332.086 117.292 331.743 115.579C331.166 112.695 330.511 112.19 326.797 111.762ZM341.777 112.405H337.402V108.703C337.402 106.608 337.1 105.001 336.708 105.001C335.53 105.001 335.326 106.52 335.526 113.797C335.728 121.173 336.909 123.535 337.268 117.285L337.472 113.751H341.777H346.081L346.285 117.232C346.404 119.261 346.839 120.829 347.33 120.99C347.972 121.202 348.171 119.34 348.171 113.134C348.171 106.353 348.003 105.001 347.161 105.001C346.386 105.001 346.152 105.861 346.152 108.703V112.405H341.777ZM362.125 118.463C363.144 121.055 364.334 122.06 364.317 120.314C364.312 119.851 363.138 116.292 361.707 112.405C360.276 108.518 358.681 105.253 358.164 105.149C357.521 105.02 356.393 107.263 354.61 112.217C353.174 116.207 351.862 119.851 351.695 120.314C351.529 120.777 351.73 121.155 352.143 121.155C352.556 121.155 353.378 119.944 353.971 118.463C355.003 115.883 355.175 115.77 358.058 115.77C360.945 115.77 361.111 115.881 362.125 118.463ZM370.319 117.79C371.895 115.228 372.784 114.424 374.042 114.424C375.531 114.424 375.714 114.735 375.899 117.569C376.014 119.326 376.475 120.835 376.945 120.99C377.588 121.202 377.787 119.34 377.787 113.134V105.001H374.085C371.28 105.001 370.056 105.328 369.037 106.347C367.296 108.088 367.318 111.078 369.086 112.976L370.482 114.474L368.749 117.43C366.857 120.658 366.708 121.155 367.633 121.155C367.971 121.155 369.18 119.641 370.319 117.79ZM393.941 115.77C397.004 115.77 397.135 115.854 398.16 118.463C398.741 119.944 399.535 121.155 399.924 121.155C400.507 121.155 396.124 107.574 394.903 105.598C394.421 104.819 393.449 104.836 392.957 105.632C392.742 105.98 391.539 109.085 390.283 112.532C389.027 115.979 387.789 119.329 387.533 119.977C387.246 120.7 387.375 121.155 387.865 121.155C388.305 121.155 389.14 119.944 389.722 118.463C390.747 115.854 390.878 115.77 393.941 115.77ZM408.843 114.559C410.89 114.426 412.375 113.905 413.153 113.046C414.79 111.237 414.582 107.665 412.753 106.184C411.763 105.383 410.122 105.001 407.664 105.001H404.037V113.078C404.037 117.702 404.309 121.155 404.673 121.155C405.023 121.155 405.402 119.717 405.514 117.958L405.72 114.761L408.843 114.559ZM457.715 106.477C459.288 106.363 460.576 105.984 460.576 105.636C460.576 104.78 447.98 104.818 447.451 105.674C447.196 106.085 448.229 106.347 450.104 106.347H453.172V113.751C453.172 123.404 454.41 123.544 454.664 113.919L454.855 106.684L457.715 106.477ZM422.22 111.059C422.024 111.059 421.04 109.696 420.034 108.03C419.028 106.364 417.894 105.001 417.516 105.001C416.523 105.001 416.602 105.236 418.914 109.157C420.409 111.693 420.824 112.993 420.374 113.73C416.947 119.341 416.105 121.155 416.93 121.154C417.428 121.154 418.685 119.639 419.725 117.789C420.764 115.939 421.852 114.424 422.142 114.424C422.432 114.424 423.494 115.939 424.501 117.79C425.508 119.641 426.785 121.155 427.338 121.155C428.113 121.155 427.937 120.495 426.583 118.294C424.621 115.111 423.79 113.782 423.876 112.516C423.939 111.578 424.506 110.674 425.489 109.077C427.864 105.216 427.93 105.001 426.739 105.001C426.269 105.001 425.14 106.364 424.23 108.03C423.32 109.696 422.415 111.059 422.22 111.059ZM433.316 118.126L433.124 111.564C432.844 102.058 431.633 103.334 431.633 113.134C431.633 119.34 431.833 121.201 432.475 120.988C432.938 120.835 435.285 117.961 437.691 114.602L442.066 108.494L442.259 114.873C442.4 119.505 442.676 121.176 443.269 120.979C444.341 120.621 444.43 105.564 443.363 105.209C442.965 105.076 440.542 107.928 437.978 111.547L433.316 118.126ZM468.99 106.347C471.026 106.347 472.691 106.044 472.691 105.674C472.691 105.295 470.785 105.001 468.316 105.001H463.941V113.078V121.155H468.653C474.308 121.155 474.987 119.961 469.494 119.674L465.624 119.472L465.417 116.612L465.21 113.751H468.278C469.965 113.751 471.345 113.448 471.345 113.078C471.345 112.708 469.982 112.405 468.316 112.405H465.288V109.376V106.347H468.99ZM483.589 108.367C482.187 110.623 481.044 111.732 480.123 111.732C478.923 111.732 478.749 111.306 478.749 108.367C478.749 106.516 478.446 105.001 478.076 105.001C477.665 105.001 477.403 108.142 477.403 113.078C477.403 118.014 477.665 121.155 478.076 121.155C478.446 121.155 478.749 119.489 478.749 117.453C478.749 114.063 478.876 113.751 480.264 113.752C481.378 113.753 482.274 114.634 483.655 117.093C484.687 118.931 485.842 120.627 486.223 120.862C487.857 121.871 487.47 120.301 485.167 116.57L482.699 112.571L485.119 108.786C486.719 106.286 487.225 105.001 486.611 105.001C486.1 105.001 484.74 106.516 483.589 108.367ZM499.447 106.477C501.02 106.363 502.307 105.984 502.307 105.636C502.307 105.283 499.467 105.001 495.913 105.001C492.099 105.001 489.519 105.273 489.519 105.674C489.519 106.044 490.73 106.347 492.211 106.347H494.903V113.751C494.903 123.404 496.141 123.544 496.395 113.919L496.586 106.684L499.447 106.477ZM506.009 120.482C506.511 121.295 508.372 121.344 509.583 120.576C510.493 119.999 515.769 107.474 515.769 105.892C515.769 103.705 514.579 105.4 512.85 110.049C511.817 112.826 510.764 115.097 510.51 115.097C510.256 115.096 509.027 112.824 507.778 110.049C506.48 107.161 505.095 105.001 504.541 105.001C504.009 105.001 503.687 105.229 503.825 105.506C510.16 118.259 510.531 119.809 507.244 119.809C506.315 119.809 505.775 120.103 506.009 120.482ZM524.415 114.424C526.719 114.424 528.002 114.063 528.79 113.193C530.322 111.5 530.203 107.993 528.557 106.347C527.538 105.328 526.314 105.001 523.509 105.001H519.807V113.078C519.807 118.014 520.069 121.155 520.48 121.155C520.851 121.155 521.154 119.641 521.154 117.79V114.424H524.415ZM541.839 118.463C542.857 121.055 544.047 122.06 544.03 120.314C544.026 119.851 542.851 116.292 541.42 112.405C539.989 108.518 538.395 105.253 537.877 105.149C537.234 105.02 536.106 107.263 534.324 112.217C532.887 116.207 531.576 119.851 531.409 120.314C531.242 120.777 531.444 121.155 531.856 121.155C532.269 121.155 533.091 119.944 533.684 118.463C534.716 115.883 534.888 115.77 537.771 115.77C540.658 115.77 540.824 115.881 541.839 118.463ZM240.478 112.398C240.478 110.957 241.105 109.655 242.445 108.315C243.902 106.858 245.051 106.347 246.872 106.347C252.675 106.347 255.488 113.652 251.299 117.841C247.007 122.134 240.478 118.849 240.478 112.398ZM263.565 113.078H260.67V109.713V106.347H263.315C266.29 106.347 268.074 107.702 268.074 109.962C268.074 112.194 266.794 113.078 263.565 113.078ZM373.633 113.078C369.82 113.078 367.746 109.753 370.094 107.405C370.676 106.823 372.191 106.347 373.459 106.347H375.768V109.713C375.768 113.044 375.746 113.078 373.633 113.078ZM405.383 110.162C405.383 108.557 405.585 107.043 405.832 106.796C406.519 106.109 410.025 106.262 411.485 107.044C412.961 107.833 413.259 110.991 411.979 112.27C411.535 112.715 409.869 113.078 408.277 113.078H405.383V110.162ZM521.154 113.078V109.713V106.347H523.798C527.799 106.347 529.529 108.659 527.861 111.776C527.332 112.765 526.441 113.078 524.159 113.078H521.154ZM358.185 114.424C356.105 114.424 355.519 114.194 355.792 113.485C355.99 112.968 356.525 111.3 356.981 109.779C357.437 108.257 357.888 107.09 357.982 107.185C358.077 107.279 358.782 108.947 359.548 110.891L360.94 114.424H358.185ZM537.572 114.424C535.771 114.424 535.237 114.182 535.505 113.485C535.703 112.968 536.251 111.257 536.723 109.682L537.581 106.818L538.741 109.443C540.58 113.608 540.388 114.424 537.572 114.424ZM296.08 114.424C294.744 114.424 293.651 114.327 293.651 114.208C293.651 114.088 294.134 112.574 294.724 110.842C295.315 109.11 295.928 107.693 296.087 107.693C296.427 107.693 297.502 110.413 298.094 112.771C298.477 114.298 298.323 114.424 296.08 114.424ZM393.823 114.424C391.936 114.424 391.24 114.174 391.485 113.583C391.677 113.12 392.205 111.606 392.657 110.217C393.11 108.83 393.678 107.693 393.919 107.693C394.159 107.693 394.841 109.208 395.433 111.059L396.509 114.424H393.823ZM329.998 116.555C329.998 118.728 328.141 119.996 325.422 119.682C323.765 119.491 323.585 119.188 323.398 116.275L323.193 113.078H325.788C328.859 113.078 329.998 114.018 329.998 116.555Z" fill="white"/>
</g>
</svg>
