<svg width="21" height="21" viewBox="0 0 21 21" fill="none" xmlns="http://www.w3.org/2000/svg">
<g clip-path="url(#clip0_2201_195)">
<path d="M16.9444 4.86112C17.1581 4.86112 17.363 4.94599 17.5141 5.09706C17.6651 5.24813 17.75 5.45303 17.75 5.66667C17.75 5.88032 17.6651 6.08522 17.5141 6.23629C17.363 6.38736 17.1581 6.47223 16.9444 6.47223H16.1389L16.1365 6.52942L15.3849 17.0588C15.356 17.4653 15.1741 17.8457 14.8759 18.1234C14.5777 18.4012 14.1853 18.5556 13.7778 18.5556H7.22139C6.81389 18.5556 6.42153 18.4012 6.12332 18.1234C5.82512 17.8457 5.64324 17.4653 5.61431 17.0588L4.86272 6.53023C4.8615 6.51092 4.86096 6.49157 4.86111 6.47223H4.05556C3.84191 6.47223 3.63701 6.38736 3.48594 6.23629C3.33487 6.08522 3.25 5.88032 3.25 5.66667C3.25 5.45303 3.33487 5.24813 3.48594 5.09706C3.63701 4.94599 3.84191 4.86112 4.05556 4.86112H16.9444ZM14.5254 6.47223H6.47464L7.22219 16.9444H13.7778L14.5254 6.47223ZM12.1111 2.44445C12.3248 2.44445 12.5297 2.52932 12.6807 2.68039C12.8318 2.83146 12.9167 3.03636 12.9167 3.25001C12.9167 3.46365 12.8318 3.66855 12.6807 3.81962C12.5297 3.97069 12.3248 4.05556 12.1111 4.05556H8.88889C8.67524 4.05556 8.47035 3.97069 8.31928 3.81962C8.1682 3.66855 8.08333 3.46365 8.08333 3.25001C8.08333 3.03636 8.1682 2.83146 8.31928 2.68039C8.47035 2.52932 8.67524 2.44445 8.88889 2.44445H12.1111Z" fill="#EB5757"/>
</g>
<defs>
<clipPath id="clip0_2201_195">
<rect width="19.3333" height="19.3333" fill="white" transform="translate(0.833496 0.833336)"/>
</clipPath>
</defs>
</svg>
