<svg width="35" height="35" viewBox="0 0 35 35" fill="none" xmlns="http://www.w3.org/2000/svg">
<g filter="url(#filter0_b_220_3822)">
<circle cx="17.5" cy="17.5" r="17.5" fill="white" fill-opacity="0.7"/>
</g>
<path d="M25.4297 9.02344H20.7812C20.6362 9.02344 20.4971 9.08105 20.3946 9.18361C20.292 9.28617 20.2344 9.42527 20.2344 9.57031C20.2344 9.71535 20.292 9.85445 20.3946 9.95701C20.4971 10.0596 20.6362 10.1172 20.7812 10.1172H24.0647L19.0364 14.9168C18.9845 14.9664 18.9428 15.0258 18.9138 15.0915C18.8847 15.1572 18.8689 15.2279 18.8673 15.2997C18.8656 15.3715 18.8781 15.443 18.904 15.51C18.9299 15.5769 18.9688 15.6382 19.0184 15.6901C19.068 15.7421 19.1273 15.7838 19.193 15.8128C19.2587 15.8418 19.3295 15.8576 19.4013 15.8593C19.4731 15.861 19.5445 15.8485 19.6115 15.8226C19.6785 15.7966 19.7397 15.7578 19.7917 15.7082L24.8828 10.8484V14.2188C24.8828 14.3638 24.9404 14.5029 25.043 14.6054C25.1455 14.708 25.2846 14.7656 25.4297 14.7656C25.5747 14.7656 25.7138 14.708 25.8164 14.6054C25.9189 14.5029 25.9766 14.3638 25.9766 14.2188V9.57031C25.9766 9.42527 25.9189 9.28617 25.8164 9.18361C25.7138 9.08105 25.5747 9.02344 25.4297 9.02344ZM25.4297 20.2344C25.2846 20.2344 25.1455 20.292 25.043 20.3946C24.9404 20.4971 24.8828 20.6362 24.8828 20.7812V24.1095L19.8007 19.0274C19.6976 18.9278 19.5594 18.8727 19.416 18.8739C19.2726 18.8752 19.1355 18.9327 19.0341 19.0341C18.9327 19.1355 18.8752 19.2726 18.8739 19.416C18.8727 19.5594 18.9278 19.6976 19.0274 19.8007L24.1095 24.8828H20.7812C20.6362 24.8828 20.4971 24.9404 20.3946 25.043C20.292 25.1455 20.2344 25.2846 20.2344 25.4297C20.2344 25.5747 20.292 25.7138 20.3946 25.8164C20.4971 25.9189 20.6362 25.9766 20.7812 25.9766H25.4297C25.5747 25.9766 25.7138 25.9189 25.8164 25.8164C25.9189 25.7138 25.9766 25.5747 25.9766 25.4297V20.7812C25.9766 20.6362 25.9189 20.4971 25.8164 20.3946C25.7138 20.292 25.5747 20.2344 25.4297 20.2344ZM14.9259 19.3009L10.1172 24.1095V20.7812C10.1172 20.6362 10.0596 20.4971 9.95701 20.3946C9.85445 20.292 9.71535 20.2344 9.57031 20.2344C9.42527 20.2344 9.28617 20.292 9.18361 20.3946C9.08105 20.4971 9.02344 20.6362 9.02344 20.7812V25.4297C9.02344 25.5747 9.08105 25.7138 9.18361 25.8164C9.28617 25.9189 9.42527 25.9766 9.57031 25.9766H14.2188C14.3638 25.9766 14.5029 25.9189 14.6054 25.8164C14.708 25.7138 14.7656 25.5747 14.7656 25.4297C14.7656 25.2846 14.708 25.1455 14.6054 25.043C14.5029 24.9404 14.3638 24.8828 14.2188 24.8828H10.8905L15.6991 20.0741C15.7988 19.971 15.8539 19.8329 15.8526 19.6895C15.8514 19.5461 15.7939 19.4089 15.6925 19.3075C15.5911 19.2061 15.4539 19.1486 15.3105 19.1474C15.1671 19.1461 15.029 19.2012 14.9259 19.3009ZM10.8905 10.1172H14.2188C14.3638 10.1172 14.5029 10.0596 14.6054 9.95701C14.708 9.85445 14.7656 9.71535 14.7656 9.57031C14.7656 9.42527 14.708 9.28617 14.6054 9.18361C14.5029 9.08105 14.3638 9.02344 14.2188 9.02344H9.57031C9.42527 9.02344 9.28617 9.08105 9.18361 9.18361C9.08105 9.28617 9.02344 9.42527 9.02344 9.57031V14.2188C9.02344 14.3638 9.08105 14.5029 9.18361 14.6054C9.28617 14.708 9.42527 14.7656 9.57031 14.7656C9.71535 14.7656 9.85445 14.708 9.95701 14.6054C10.0596 14.5029 10.1172 14.3638 10.1172 14.2188V10.8905L14.9259 15.6991C15.029 15.7988 15.1671 15.8539 15.3105 15.8526C15.4539 15.8514 15.5911 15.7939 15.6925 15.6925C15.7939 15.5911 15.8514 15.4539 15.8526 15.3105C15.8539 15.1671 15.7988 15.029 15.6991 14.9259L10.8905 10.1172Z" fill="#4F4F4F"/>
<defs>
<filter id="filter0_b_220_3822" x="-3.5" y="-3.5" width="42" height="42" filterUnits="userSpaceOnUse" color-interpolation-filters="sRGB">
<feFlood flood-opacity="0" result="BackgroundImageFix"/>
<feGaussianBlur in="BackgroundImageFix" stdDeviation="1.75"/>
<feComposite in2="SourceAlpha" operator="in" result="effect1_backgroundBlur_220_3822"/>
<feBlend mode="normal" in="SourceGraphic" in2="effect1_backgroundBlur_220_3822" result="shape"/>
</filter>
</defs>
</svg>
