<svg width="15" height="16" viewBox="0 0 15 16" fill="none" xmlns="http://www.w3.org/2000/svg">
<g clip-path="url(#clip0_195_3037)">
<path d="M13.5955 2.30377C11.726 0.434224 8.68399 0.434224 6.8142 2.30377L1.00147 8.11648C-0.333855 9.45195 -0.333767 11.6249 1.00164 12.9602C1.66941 13.628 2.54626 13.9619 3.42347 13.9618C4.30044 13.9617 5.17777 13.6279 5.84541 12.9602L11.1736 7.63194C11.5618 7.24381 11.7756 6.72775 11.7756 6.17884C11.7756 5.62991 11.5619 5.11387 11.1737 4.72563C10.3723 3.92439 9.06851 3.92442 8.26736 4.72578L4.78293 8.21011C4.51542 8.47759 4.51542 8.91133 4.78287 9.17887C5.05035 9.44644 5.48409 9.44635 5.75163 9.17887L9.23609 5.69451C9.50319 5.42741 9.93772 5.42735 10.2048 5.69445C10.2687 5.75791 10.3192 5.83339 10.3537 5.91653C10.3881 5.99967 10.4057 6.08882 10.4055 6.17881C10.4055 6.36177 10.3343 6.53375 10.2048 6.66318L4.87665 11.9915C4.07535 12.7927 2.77164 12.7928 1.9704 11.9915C1.16916 11.1902 1.1691 9.88645 1.97026 9.08515L7.78296 3.27253C9.11849 1.93707 11.2914 1.93707 12.6267 3.27253C13.2737 3.91941 13.63 4.77954 13.63 5.69439C13.63 6.60924 13.2737 7.46937 12.6267 8.1163L6.81411 13.9291C6.54663 14.1966 6.54663 14.6303 6.81417 14.8979C6.87771 14.9616 6.95321 15.0121 7.03633 15.0465C7.11946 15.0809 7.20857 15.0986 7.29854 15.0985C7.38851 15.0986 7.47762 15.0809 7.56075 15.0465C7.64388 15.0121 7.71938 14.9615 7.78293 14.8979L13.5955 9.08509C14.5012 8.17944 15 6.97528 15 5.69442C15 4.41359 14.5012 3.20943 13.5955 2.30377Z" fill="white"/>
</g>
<defs>
<clipPath id="clip0_195_3037">
<rect width="15" height="15" fill="white" transform="translate(0 0.5)"/>
</clipPath>
</defs>
</svg>
