<svg width="35" height="36" viewBox="0 0 35 36" fill="none" xmlns="http://www.w3.org/2000/svg">
<g clip-path="url(#clip0_7_483)">
<path d="M17.4184 0.641649C12.7912 0.663243 8.361 2.51652 5.09676 5.79606C1.83251 9.07561 -1.98664e-05 13.5145 3.05186e-05 18.1416C3.05186e-05 22.7829 1.84378 27.2341 5.12566 30.516C8.40755 33.7979 12.8587 35.6416 17.5 35.6416C22.1413 35.6416 26.5925 33.7979 29.8744 30.516C33.1563 27.2341 35 22.7829 35 18.1416C35 13.5004 33.1563 9.04917 29.8744 5.76728C26.5925 2.48539 22.1413 0.641649 17.5 0.641649C17.4728 0.641586 17.4456 0.641586 17.4184 0.641649ZM24.6546 11.1766C24.8004 11.1737 25.1227 11.2102 25.3327 11.3808C25.4723 11.502 25.5613 11.6711 25.5821 11.8548C25.6054 11.9904 25.6346 12.301 25.6113 12.5431C25.3488 15.311 24.2084 22.0252 23.6279 25.1241C23.3829 26.4366 22.9002 26.8756 22.4321 26.9179C21.4171 27.0127 20.6457 26.2471 19.6613 25.6025C18.1213 24.5919 17.2507 23.9633 15.7559 22.9775C14.0277 21.84 15.1477 21.2129 16.1321 20.1921C16.3902 19.9237 20.8673 15.8506 20.9548 15.4816C20.965 15.435 20.9752 15.2629 20.8732 15.1725C20.7711 15.0821 20.6194 15.1127 20.51 15.1375C20.3554 15.1725 17.8952 16.8 13.1294 20.0156C12.4294 20.4969 11.7979 20.7302 11.2307 20.7156C10.6065 20.7039 9.40482 20.3641 8.51086 20.0739C7.4142 19.7166 6.54357 19.5285 6.61941 18.9233C6.65878 18.6083 7.09336 18.286 7.9217 17.9564C13.0229 15.7339 16.4238 14.2683 18.1271 13.561C22.9863 11.5398 23.9969 11.1883 24.6546 11.1766Z" fill="white"/>
</g>
<defs>
<clipPath id="clip0_7_483">
<rect width="35" height="35" fill="white" transform="translate(3.05176e-05 0.641602)"/>
</clipPath>
</defs>
</svg>
