<svg width="35" height="36" viewBox="0 0 35 36" fill="none" xmlns="http://www.w3.org/2000/svg">
<g clip-path="url(#clip0_7_485)">
<path d="M17.5 1.3418C8.22153 1.3418 0.700027 8.8633 0.700027 18.1418C0.700027 27.4203 8.22153 34.9418 17.5 34.9418C26.7785 34.9418 34.3 27.4203 34.3 18.1418C34.3 8.8633 26.7785 1.3418 17.5 1.3418ZM23.961 20.296C23.961 20.296 25.4468 21.7625 25.8125 22.4433C25.823 22.4573 25.8283 22.4713 25.8318 22.4783C25.9805 22.7285 26.0155 22.9228 25.942 23.068C25.8195 23.3095 25.3995 23.4285 25.256 23.439H22.631C22.449 23.439 22.0675 23.3918 21.6055 23.0733C21.2503 22.8248 20.9003 22.417 20.559 22.0198C20.0498 21.4283 19.6088 20.9173 19.1643 20.9173C19.1078 20.9172 19.0517 20.9261 18.998 20.9435C18.662 21.052 18.2315 21.5315 18.2315 22.809C18.2315 23.208 17.9165 23.4373 17.6943 23.4373H16.492C16.0825 23.4373 13.9493 23.2938 12.0593 21.3005C9.74578 18.8593 7.66328 13.9628 7.64578 13.9173C7.51453 13.6005 7.78578 13.4308 8.08153 13.4308H10.7328C11.0863 13.4308 11.2018 13.646 11.2823 13.8368C11.3768 14.059 11.7233 14.9428 12.292 15.9368C13.2143 17.5573 13.7795 18.2153 14.2328 18.2153C14.3178 18.2143 14.4012 18.1927 14.476 18.1523C15.0675 17.8233 14.9573 15.7145 14.931 15.277C14.931 15.1948 14.9293 14.3338 14.6265 13.9208C14.4095 13.6215 14.0403 13.5078 13.8163 13.4658C13.9069 13.3407 14.0264 13.2393 14.1645 13.17C14.5705 12.967 15.302 12.9373 16.0283 12.9373H16.4325C17.22 12.9478 17.423 12.9985 17.7083 13.0703C18.2858 13.2085 18.298 13.5813 18.2473 14.857C18.2315 15.2193 18.2158 15.6288 18.2158 16.1118C18.2158 16.2168 18.2105 16.3288 18.2105 16.4478C18.193 17.097 18.172 17.8338 18.6305 18.1365C18.6903 18.174 18.7594 18.1941 18.83 18.1943C18.9893 18.1943 19.4688 18.1943 20.7673 15.9665C21.1677 15.2495 21.5157 14.5044 21.8085 13.737C21.8348 13.6915 21.9118 13.5515 22.0028 13.4973C22.0699 13.4631 22.1444 13.4456 22.2198 13.4465H25.3365C25.676 13.4465 25.9088 13.4973 25.9525 13.6285C26.0295 13.8368 25.9385 14.472 24.5158 16.3988L23.8805 17.237C22.5908 18.9275 22.5908 19.0133 23.961 20.296Z" fill="white"/>
</g>
<defs>
<clipPath id="clip0_7_485">
<rect width="35" height="35" fill="white" transform="translate(3.05176e-05 0.641602)"/>
</clipPath>
</defs>
</svg>
