<svg width="26" height="26" viewBox="0 0 26 26" fill="none" xmlns="http://www.w3.org/2000/svg">
<g clip-path="url(#clip0_220_3735)">
<path d="M25.1875 13C25.1875 14.04 23.9098 14.8972 23.6539 15.8559C23.3898 16.8472 24.0581 18.2284 23.5564 19.0958C23.0466 19.9773 21.513 20.083 20.798 20.798C20.083 21.513 19.9773 23.0466 19.0958 23.5564C18.2284 24.0581 16.8472 23.3898 15.8559 23.6539C14.8972 23.9098 14.04 25.1875 13 25.1875C11.96 25.1875 11.1028 23.9098 10.1441 23.6539C9.15281 23.3898 7.77156 24.0581 6.90422 23.5564C6.02266 23.0466 5.91703 21.513 5.20203 20.798C4.48703 20.083 2.95344 19.9773 2.44359 19.0958C1.94187 18.2284 2.61016 16.8472 2.34609 15.8559C2.09016 14.8972 0.8125 14.04 0.8125 13C0.8125 11.96 2.09016 11.1028 2.34609 10.1441C2.61016 9.15281 1.94187 7.77156 2.44359 6.90422C2.95344 6.02266 4.48703 5.91703 5.20203 5.20203C5.91703 4.48703 6.02266 2.95344 6.90422 2.44359C7.77156 1.94187 9.15281 2.61016 10.1441 2.34609C11.1028 2.09016 11.96 0.8125 13 0.8125C14.04 0.8125 14.8972 2.09016 15.8559 2.34609C16.8472 2.61016 18.2284 1.94187 19.0958 2.44359C19.9773 2.95344 20.083 4.48703 20.798 5.20203C21.513 5.91703 23.0466 6.02266 23.5564 6.90422C24.0581 7.77156 23.3898 9.15281 23.6539 10.1441C23.9098 11.1028 25.1875 11.96 25.1875 13Z" fill="white"/>
<path d="M16.5223 9.36806L11.8829 14.0074L9.47791 11.6045C9.22709 11.3538 8.88698 11.213 8.53236 11.213C8.17774 11.213 7.83764 11.3538 7.58682 11.6045C7.33613 11.8553 7.19531 12.1954 7.19531 12.55C7.19531 12.9046 7.33613 13.2447 7.58682 13.4956L10.9607 16.8695C11.2049 17.1133 11.5358 17.2503 11.8809 17.2503C12.2259 17.2503 12.5569 17.1133 12.801 16.8695L18.4113 11.2592C18.662 11.0083 18.8029 10.6682 18.8029 10.3136C18.8029 9.95899 18.662 9.61888 18.4113 9.36806C18.2874 9.24395 18.1401 9.14549 17.978 9.07831C17.816 9.01114 17.6423 8.97656 17.4668 8.97656C17.2914 8.97656 17.1177 9.01114 16.9556 9.07831C16.7935 9.14549 16.6463 9.24395 16.5223 9.36806Z" fill="#C98636"/>
</g>
<defs>
<clipPath id="clip0_220_3735">
<rect width="26" height="26" fill="white"/>
</clipPath>
</defs>
</svg>
